<?xml version="1.0" encoding="UTF-8"?>
<svg width="116px" height="32px" viewBox="0 0 116 32" version="1.1" xmlns="http://www.w3.org/2000/svg" xmlns:xlink="http://www.w3.org/1999/xlink">
    <!-- Generator: Sketch 60.1 (88133) - https://sketch.com -->
    <title>Logo with logomark</title>
    <desc>Created with Sketch.</desc>
    <defs>
        <linearGradient x1="50%" y1="0%" x2="50%" y2="100%" id="linearGradient-1">
            <stop stop-color="#F6E05E" offset="0%"></stop>
            <stop stop-color="#F6AD55" offset="100%"></stop>
        </linearGradient>
        <linearGradient x1="50%" y1="0%" x2="50%" y2="100%" id="linearGradient-2">
            <stop stop-color="#5155BE" offset="0%"></stop>
            <stop stop-color="#4044A6" offset="100%"></stop>
        </linearGradient>
    </defs>
    <g id="Logo-with-logomark" stroke="none" stroke-width="1" fill="none" fill-rule="evenodd">
        <path d="M39.9193084,16.2070811 C39.9193084,13.572252 41.5002058,11.9254837 43.7398106,11.9254837 C46.2428983,11.9254837 47.5273775,13.7369288 47.5273775,16.5034994 C47.5273775,19.2371346 46.2428983,21.0485797 43.7398106,21.0485797 C41.5002058,21.0485797 39.9193084,19.4347468 39.9193084,16.7669823 L39.9193084,16.2070811 Z M44.9584191,24.1445039 C49.2400165,24.1445039 51.5125566,20.7850967 51.5125566,16.5034994 C51.5125566,12.221902 49.2400165,8.82955949 44.9584191,8.82955949 C42.3565253,8.82955949 40.610951,10.2457802 39.9522437,12.0242898 L39.2845001,9.60260629 C39.2229555,9.37940436 39.0199304,9.22478386 38.7883989,9.22478386 L36.5146151,9.22478386 C36.230401,9.22478386 36,9.45518488 36,9.73939893 L36,28.6360642 C36,28.9202781 36.230401,29.1506793 36.5146151,29.1506793 L39.4376287,29.1506793 C39.7218427,29.1506793 39.9522437,28.9202781 39.9522437,28.6360642 L39.9522437,20.9827089 C40.610951,22.7282832 42.3565253,24.1445039 44.9584191,24.1445039 Z M64.5464834,18.9648968 C63.9526204,20.4198895 62.8244792,21.1473858 60.9979415,21.1473858 C58.8571429,21.1473858 57.1774393,19.632359 57.0456978,17.4915603 L67.4326883,17.4915603 C67.7169023,17.4915603 67.9473034,17.2611593 67.9473034,16.9769452 L67.9473034,16.0753396 C67.9473034,12.1230959 65.5100865,8.82955949 60.767394,8.82955949 C56.4199259,8.82955949 53.1593248,12.1230959 53.1593248,16.7011116 C53.1593248,21.2791272 56.3869905,24.1445039 60.8662001,24.1445039 C64.4443706,24.1445039 66.8961105,22.3787479 67.7530998,19.374096 C67.8015245,19.2043164 67.7031469,19.027427 67.5333674,18.9790024 C67.5154119,18.9738811 67.4970422,18.9703428 67.4784677,18.9684397 L64.9714785,18.7099872 C64.7889275,18.6911634 64.6158334,18.7949859 64.5464834,18.9648968 Z M57.1115685,15.021408 C57.4738576,13.2099629 58.5607246,11.7278716 60.7344586,11.7278716 C62.941128,11.7278716 63.9621243,13.3417044 64.0938658,15.021408 L57.1115685,15.021408 Z M70.4833265,3.51461507 L70.4833265,23.2346645 C70.4833265,23.5188785 70.7137276,23.7492795 70.9979415,23.7492795 L73.9209551,23.7492795 C74.2051691,23.7492795 74.4355702,23.5188785 74.4355702,23.2346645 L74.4355702,3.51461507 C74.4355702,3.23040101 74.2051691,3 73.9209551,3 L70.9979415,3 C70.7137276,3 70.4833265,3.23040101 70.4833265,3.51461507 Z M77.762042,9.73939893 L77.762042,23.2346645 C77.762042,23.5188785 77.9924431,23.7492795 78.2766571,23.7492795 L81.1996706,23.7492795 C81.4838846,23.7492795 81.7142857,23.5188785 81.7142857,23.2346645 L81.7142857,9.73939893 C81.7142857,9.45518488 81.4838846,9.22478386 81.1996706,9.22478386 L78.2766571,9.22478386 C77.9924431,9.22478386 77.762042,9.45518488 77.762042,9.73939893 Z M78.2107863,6.85343763 L81.232606,6.85343763 C81.5168199,6.85343763 81.7472211,6.62303661 81.7472211,6.33882256 L81.7472211,3.51461507 C81.7472211,3.23040101 81.5168199,3 81.232606,3 L78.2107863,3 C77.9265724,3 77.6961713,3.23040101 77.6961713,3.51461507 L77.6961713,6.33882256 C77.6961713,6.62303661 77.9265724,6.85343763 78.2107863,6.85343763 Z M88.1696171,16.5034994 C88.1696171,13.7369288 89.421161,11.8266776 91.8254426,11.8266776 C94.2626595,11.8266776 95.5142034,13.7369288 95.5142034,16.5034994 C95.5142034,19.2371346 94.2626595,21.1473858 91.8254426,21.1473858 C89.421161,21.1473858 88.1696171,19.2371346 88.1696171,16.5034994 Z M99.4993825,16.5034994 C99.4993825,11.9913545 96.3375875,8.82955949 91.8254426,8.82955949 C87.346233,8.82955949 84.184438,11.9913545 84.184438,16.5034994 C84.184438,21.0156443 87.346233,24.1445039 91.8254426,24.1445039 C96.3375875,24.1445039 99.4993825,21.0156443 99.4993825,16.5034994 Z M105.954714,15.9765336 L105.954714,23.2346645 C105.954714,23.5188785 105.724313,23.7492795 105.440099,23.7492795 L102.517085,23.7492795 C102.232871,23.7492795 102.00247,23.5188785 102.00247,23.2346645 L102.00247,9.73939893 C102.00247,9.45518488 102.232871,9.22478386 102.517085,9.22478386 L104.809115,9.22478386 C105.031957,9.22478386 105.22948,9.36821053 105.298457,9.58010807 L105.954714,11.5961301 C106.679292,9.94936188 108.523672,8.82955949 110.697406,8.82955949 C114.583779,8.82955949 116,11.4643886 116,14.6920543 L116,23.2346645 C116,23.5188785 115.769599,23.7492795 115.485385,23.7492795 L112.562371,23.7492795 C112.278157,23.7492795 112.047756,23.5188785 112.047756,23.2346645 L112.047756,15.4825031 C112.047756,13.2428983 111.158501,11.9584191 109.215315,11.9584191 C107.206258,11.9584191 105.954714,13.5393166 105.954714,15.9765336 Z" id="Logo" fill="#5155BE" fill-rule="nonzero"></path>
        <g id="FINAL-LOGO" transform="translate(0.000000, 4.000000)" fill-rule="nonzero">
            <path d="M12,5.68434189e-14 C16.8661152,5.68434189e-14 21.0557388,2.8964052 22.9389212,7.05926611 C22.6994528,7.90987755 22.3315772,8.77334789 21.8320726,9.63851522 C20.9101811,11.2352782 19.7691128,12.4408551 18.48,13.2361862 C17.1908871,14.0315172 15.7537296,14.4166024 14.2396596,14.3723819 C12.7255896,14.3281615 11.134607,13.8546354 9.53784403,12.9327439 C8.89200382,12.5598679 8.3101596,12.1511357 7.79357252,11.7112541 L3.02669036,19.9676117 C1.14371201,17.8484998 0,15.057814 0,12 C0,5.372583 5.372583,5.68434189e-14 12,5.68434189e-14 Z M13.1874882,4.56435114 C12.8050764,4.56004125 12.4351475,4.65916341 12.1061241,4.85410182 C11.7771006,5.04904023 11.4889827,5.33979489 11.2701928,5.71875 C11.051403,6.09770511 10.9436611,6.49259988 10.9393511,6.87501173 C10.9350413,7.25742359 11.0341634,7.62735253 11.2291018,7.95637597 C11.4240402,8.2853994 11.7147949,8.57351733 12.09375,8.79230716 C12.4727051,9.01109699 12.8675999,9.11883895 13.2500118,9.12314886 C13.6324236,9.12745875 14.0023525,9.02833659 14.3313759,8.83339818 C14.6603994,8.63845977 14.9485173,8.34770511 15.1673072,7.96875 C15.386097,7.58979489 15.4938389,7.19490012 15.4981489,6.81248827 C15.5024588,6.43007641 15.4033366,6.06014747 15.2083982,5.73112403 C15.0134598,5.4021006 14.7227051,5.11398267 14.34375,4.89519284 C13.9647949,4.67640301 13.5699001,4.56866105 13.1874882,4.56435114 Z" id="Combined-Shape" fill="url(#linearGradient-1)"></path>
            <path d="M22.9389392,7.05930584 C23.6205501,8.56605272 24,10.2387137 24,12 C24,18.627417 18.627417,24 12,24 C8.43044238,24 5.22490579,22.4414407 3.0267741,19.9677059 L7.79357252,11.7112541 C8.3101596,12.1511357 8.89200382,12.5598679 9.53784403,12.9327439 C11.134607,13.8546354 12.7255896,14.3281615 14.2396596,14.3723819 C15.7537296,14.4166024 17.1908871,14.0315172 18.48,13.2361862 C19.7691128,12.4408551 20.9101811,11.2352782 21.8320726,9.63851522 C22.3237481,8.78690831 22.6878886,7.9369456 22.9273853,7.0994181 L22.9389392,7.05930584 Z M13.1874882,4.56435114 C13.5699001,4.56866105 13.9647949,4.67640301 14.34375,4.89519284 C14.7227051,5.11398267 15.0134598,5.4021006 15.2083982,5.73112403 C15.4033366,6.06014747 15.5024587,6.43007641 15.4981489,6.81248827 C15.4938389,7.19490012 15.386097,7.58979489 15.1673072,7.96875 C14.9485173,8.34770511 14.6603994,8.63845977 14.3313759,8.83339818 C14.0023525,9.02833659 13.6324236,9.12745875 13.2500118,9.12314886 C12.8675999,9.11883895 12.4727051,9.01109699 12.09375,8.79230716 C11.7147949,8.57351733 11.4240402,8.2853994 11.2291018,7.95637597 C11.0341634,7.62735253 10.9350412,7.25742359 10.9393511,6.87501173 C10.9436611,6.49259988 11.051403,6.09770511 11.2701928,5.71875 C11.4889827,5.33979489 11.7771006,5.04904023 12.1061241,4.85410182 C12.4351475,4.65916341 12.8050764,4.56004125 13.1874882,4.56435114 Z" id="Combined-Shape" fill="url(#linearGradient-2)"></path>
        </g>
    </g>
</svg>